<?xml version="1.0" encoding="UTF-8"?> <svg xmlns="http://www.w3.org/2000/svg" role="img" aria-hidden="true" viewBox="0 0 336 254"><defs></defs><path fill="#9b5832" d="M93.82 127.06c16.9 3.08 29.62 14 34.47 17.24 14.33 9.56 34.46 32.07 34.46 32.07 22.86 7.51 21.84 14.34 52.89 25.94l-4.35 16.16-54-14.62L102.52 166s-25.58-42-8.7-38.91z"></path><path fill="#8bc9a7" d="M137.84 151.46c-2.73 1.2-6.14 1.88-6.14 5.46-3.07 0-30.41-30.28-30.41-30.28s28.02 15.1 36.55 24.82z"></path><path fill="#451600" d="M56.76 94.83c.34-1-3.54-12.28-3.54-12.28l-6.77-1.5z"></path><path fill="#451600" d="M47.09 36.78c-.77-4.45-8-5.81-7.71-.61-.59-3.71-8.7-8.06-9.42-2.66-4-3.38-14.56 2.05-9.13 5.27-7.65-3.4-17.4 8.75-7.68 13.49-7-4.56-17 10.56-7.16 13.56C-1 65.57 1.74 77.69 9.78 76c-5.65 6.15 5.54 15.85 8.49 10-1.77 2 .18 5.14 2.17 6.38 3.27 2 12.33.09 11.71-4.44-3.45 1.76 1.94 6.71 4.35 7.06 4.69.66 8.12-6.3 5.52-5.89-1.5.24 1.63 2.13 2 2.22 2.63.61 5.13-1.9 6.48-3.83 2.91-4.17 3.85-11.12-2.09-12.6 5.84-3.88.09-13.78-5.23-15.07 4.56-2.64 8.22-14.9 1.45-17.12 2.18 2.63 5.8-.39 5.62-3.19s-2.58-2.69-3.19-2.74z"></path><path fill="#55b78a" d="M54.41 115.8c-10.23 3.08-23 5.8-19.57 32.12a56.83 56.83 0 001.79 8.44.72.72 0 01.46 0c7.13-.08 84.21 53.93 116 41.6 2.71-3.11 7.37-10.55 2.82-21.55-6.14-14.85-23.84-17.91-30-24.39-11-11.64-13.35-22-30.2-29-17.06-7.12-40.07-7.62-41.33-7.25zm37.88 89.07c-.18.51 1.74 34.26 6.49 49.13h72.63c0-12.28-4.27-25.23-10.15-37.22-16.64-5.93-39 21-69-11.91z"></path><path fill="#27a877" d="M40 156.32c7.13-.08 81.31 54 113.12 41.61a14.28 14.28 0 01-1.66 1.64 155.47 155.47 0 019.81 17.21c-16.64-5.92-39 21-69-11.91-.18.51 1.73 34.29 6.49 49.13H65.33c-1.53-20.47 3-33.67 2.3-39.58-1.45-12.63-25.9-30.55-33.9-58.1.26-.08 6.25 0 6.26 0z"></path><path fill="#9b5832" d="M205.86 202.05a29.74 29.74 0 008.08 1.62c9.72.57 6.88-8.22 16-5.8 6.93 1.83 26 13.69 31.91 17.11 2.9 1.66 3.68 4.15-2.9 9.51-5.46 4.43-8.57-1-12.63.34-30 9.89-29-6.81-33.61-8.92-4.39-2-1.27-2.17-5.8-2.81-1.15-.17-2.45-.29-3.87-.38 2.22-3.48 3.7-7.13 2.82-10.67z"></path><path fill="#ad412f" d="M189.67 208h-.12c-.03.14.03.12.12 0zm21.31.53h.11c.03-.21-.09-.09-.09.03z"></path><path fill="#c5c6c6" d="M189.54 216.29l.76-11.15h53.18c-.66 2.66-.66 6.28.64 8 2.23 3.55-2.17 5.13.95 5.5l-28.66 2.22z"></path><path fill="#9c9c9c" d="M237.14 206.32l24.33-67.83a4.17 4.17 0 014-2.77l65.75.72a3 3 0 012.91 3 2.8 2.8 0 01-.18 1l-24.65 65.92-2.43 4.86a5.58 5.58 0 01-4.56 3.06c-17.59-.3-57.18.78-57.28.8-12-1.49-7.87-8.68-7.88-8.75z"></path><path fill="#9c9c9c" d="M304.62 214l-105.87-1.37 7.42 9.81 98.45-8.44z"></path><path fill="#fff" d="M285.51 184.75l-.08 3.66a4.89 4.89 0 004.8-.71c1.33-1.06 2.56-3.11 3.74-6.38l8.91-23-4-1.39-7.18 19.3-3.09-13.23-3.61-1.31 4.5 16.31a6.81 6.81 0 01-.09 4.37 3.36 3.36 0 01-3.9 2.38z"></path><path fill="#b97654" d="M67.56 139.41c15.29 8.57 46.5 34.51 53.56 36.62 6.06 1.82 13.34 2.36 26.27 6.48 15.92 5.08 21 14.87 42.33 14.5 2.46 0 9.68-.65 14.51-2.63 5.07-2.09 11.74 2.63 17.07 5.22 1.45.73 6.42 1.4 7.12 2 3.25 2.64-.22 4.41-2.48 5.07-4.06 1.23-7.26-.59-11-1.93-6.92 7.41.31 10.87 4.09 17.49 4.69-1.23 11-2.35 12.67 3.33-2 1.05-3.47 0-5.69.93-2.81 1.15-6.75 3.91-9.93 4s-5.37-3.56-7.54-4.35c-2.81-1-2 1.55-5.18 1.54-2.67 0-3.38-1.8-7.76-3.25-3.72-1.22-7.21-8.07-12.33-10.37-11-4.89-45.43.73-70.68-9.15-19.8-7.77-45.38-17.11-63.81-32.26 6.45-10.7 12-22.8 18.75-33.18z"></path><path fill="#b97654" d="M92.12 110.18l2 14a3.48 3.48 0 001.14 2.18c8.43 7 21.53 19.93 21.76 31.9-9.21 1.71-21.15-18.08-47.77-32.41-6.86-3.7-17.49-5.46-27-4.44C50.34 114.8 55 114.54 57 109.64c1.59-4.06-4.14-21.46-5.16-27.09s-7.3-28.15-7.3-28.15-.39-25.38 16-33.56 31.7-2.56 37.32 2.55 8.62 3.37 15.28 37.71c8.33 46-21 49.08-21 49.08z"></path><path fill="#ef9277" d="M97.24 89.7c-1.74 1.69 0 3.77-.68 6.26a4.16 4.16 0 01-5.46 3.25c-4.81-1.21-12.21-8.1-14.21-12.58 4.82-.81 18.7 1.93 23.07 1.37.04 1.07-2.16 2.07-2.72 1.7z"></path><path fill="#9b5832" d="M62.3 99.91c7.93 9 20.1 12.33 29.86 10.3.23 2 .64 4.48.77 6-9.72 11.56-32.07-17.91-30.63-16.3z"></path><path fill="#8e3a1a" d="M100.55 88.31c-2 4.18-23.45-1.84-23.53-1.84.08-.01 21.92-5.98 23.53 1.84z"></path><path fill="#f6f6f6" d="M95.88 88.31c-.69 2-1.46 5.12-3.89 5.8-2.9.8-10.91-3.37-11.47-6.83 8.75-.21 13.64.3 15.36 1.03z"></path><path fill="#8e3a1a" d="M99.83 63.75c-.89.83.76 7 2.12 8.77 1.15.72 5.85 6.09 1.81 6-2.81 5.28-6.43-.1-8.25-.4s-2 3.23-4.35 1.62c-2.17-1.53-2.3-4.59.2-5.4-1.31 1.53-1.49 3.21.64 3.75 1.68.43 1.53-1.25 3.28-1.32 4-.16 6.7 4.42 8-.72.25-1.84-2.3-2-3.16-4.4-.88-2.62-1.19-7.71-.27-7.88z"></path><path fill="#7b6151" d="M43.67 75a4.33 4.33 0 002.78 6c-1.86-1.45-2.64-4.88-2.78-5.67z"></path><path fill="#ececec" d="M81.16 58.46c3.66 0 5.07 3.51 5.07 6.22 0 2.11-3.86 4.35-6 4.35-3.21 0-6.72-2.71-6.72-5.71.02-2.64 5.04-4.86 7.65-4.86z"></path><path fill="#181716" d="M86.35 64.38A6.89 6.89 0 0085 59.61a6.32 6.32 0 00-2-1.86 7.15 7.15 0 00-2.77-.85 5.46 5.46 0 00-1.51 0 8.07 8.07 0 00-3.89 1.58 5.21 5.21 0 00-1.65 2.35 3 3 0 00.43 2.9h.11a3.53 3.53 0 01.73-2A6.09 6.09 0 0176 60.21a7 7 0 014.12-1.27 5.8 5.8 0 013.88 1.7 9 9 0 012.22 3.75z"></path><path fill="#ececec" d="M104.9 60.52a5.66 5.66 0 00-2.4 4.07c0 2.64 3.21 4.35 5.28 4.35 1.07 0 4.26-1.17 4.26-4.15 0-2.48-2-5.22-4.53-5.22a4.44 4.44 0 00-2.61.95z"></path><path fill="#181716" d="M112 64.76a4.36 4.36 0 00-1.33-3.17 4.52 4.52 0 00-3.21-1.26 5.3 5.3 0 00-3.24 1.26 4.13 4.13 0 00-1.63 3h-.11a3.07 3.07 0 01-.14-2.11 5.42 5.42 0 01.39-1 6.54 6.54 0 01.62-.93c.14-.17.29-.33.45-.49a5.94 5.94 0 018.39 0 3.28 3.28 0 01-.05 4.73zm-28.3-.56c-1.8-2.59-5.18 0-3.91 2.36 1.44 2.63 5.71.23 3.91-2.36z"></path><path fill="#181716" d="M108.05 68.08c2.63 1.31 4.2-2.38 1.17-3.29-2.14-.23-2.35 2.7-1.17 3.29z"></path><path fill="#451600" d="M42.84 62.42c.27.58 2.65-.1 3.07.39.69.78 2 .66 4.1 1.91 1.45.89 5.09 1 6.43-.12 7-6 3.77-4.82 4.44-6.66.74-2.2-5.15-.43-5.37-1.66 2.43-1.67 4.2-.37 4.73-2.31.36-1.5-3.45-1.66-6-2.3 1.92-1 6.3.35 6.78-1.28.39-2.26-6.19-2.61-6.14-2.69 3-.72 7.69 0 7.85-1.56.61-2.17-6.15-2.17-5.91-3.09.53-1 8 .43 8.6-.72 1-1.92-4.65-3-5.12-3.58.58-.18 7.68.51 8.06-.26 1-1.79-4.12-3.83-4.12-3.9 2.82-1.11 6.3 1 6.93.19 1.79-2.29-5.58-4.41-5.88-4.6.07 0 7.71 2 9.6.64 1.56-1.7-4.35-3.59-7.68-4.87 4.35.29 11.11 3.11 13 2.08s-4-4.14-3.2-4.35c1.87-.51 7.29 3.32 8.44 3.32 1.79-.38.66-1.64-.48-3.39 1 .58 4.43 3.66 5.73 3.39 1.54-.25-.9-2.68-1.53-3.83 2.17 1.15 6 5.37 7.29 5.11 1.28-.63-.38-2.17-.25-3.32 1.53 1.66 2.81 4.48 4 4.48 1 .38.94-2.51 1-2.44s2.09 6.53 3 6.67c.88.63 1.11-1.12 1.54-1a42.85 42.85 0 002.24 5.86 1.3 1.3 0 00.16-.31c1.49-4.5-4.95-21.53-29.8-22.89-28.95.74-46.68 23.4-35.51 47.09zm62.79-32.71"></path><path fill="#451600" d="M79.44 48.13c-5.06.79-8.23 3.84-8.42 3-.58-3.3 11.73-9.65 15.64-6.14 3.46 3.44-2.48 2.41-7.22 3.14zM111.27 52c-1-2-4-3.76-8.62-4-3.16-.16-3.16-3.21-1.1-3.5a8.2 8.2 0 019.45 4.85c.91 2.22.25 2.7.27 2.65z"></path><path fill="#8bc9a7" d="M92.8 156.54c-11.6-3.33-25.93 25-18.76 31.82 0 0-29.39-12.63-42.19-31.05S43 111.8 57.31 120.5s35.49 36.04 35.49 36.04z"></path><path fill="#49a5c9" d="M105.47 69.3c-.55-.47-1.81-2.43-2.48-6a16.55 16.55 0 01-.11-6.39 28.25 28.25 0 0110.36-2c4.4 0 6.16 1 6.66 1.64s.78 2.22-.45 6.22c-.93 3-2 5.68-3 6.45-.8 1.01-9.37 1.48-10.98.08zm7.77-15.89c-5.16 0-10.95 1-11.93 2.17-1.72 2.05 0 13 2.72 15.35 1 .9 3 1.22 5.12 1.22 3.6 0 7.67-.91 8.53-1.56 1.37-1 6.14-12.28 3.75-15.35-1-1.29-4.43-1.8-8.19-1.8zM80.33 54.6c6.92 0 9.27 1.3 9.56 1.75.58.95.66 3.39-.79 7.37A20.37 20.37 0 0185.63 70a32.41 32.41 0 01-7 .56c-4.64 0-7.24-.54-7.85-.9-.39-.51-1.36-2.88-2-6.75s-.5-6.12-.27-6.84c1.2-.52 6-1.45 11.87-1.45zm0-2.21c-6 0-12.36 1-13.46 2.1-2.05 2 .34 14.68 2.39 16.72 1.08 1.08 5.3 1.5 9.35 1.5 3.61 0 7.08-.33 8-.82 2-1 7.8-12.24 5.07-16.68-1.25-2.06-6.22-2.79-11.4-2.79z"></path><path fill="#49a5c9" d="M102.18 55.64C99.13 53.8 94.4 54 91 55.41l.23 5.59c3.73-2.67 8-2.62 10.88-.5z"></path><path fill="#136b94" d="M69.3 71.88l-3-1a1.44 1.44 0 01-.94-1l-3.89-14a14.31 14.31 0 014.78-1.11 41.36 41.36 0 003.05 17.11z"></path><path fill="#136b94" d="M44 60c1-.68 22.19-5.46 22.19-5.46l.29 7.16-19.79 1.7z"></path><path fill="#b97654" d="M38.92 72.68c0 6.37 8.43 11.26 13.52 11.26s.81-5.66.81-12S49.07 60.4 44 60.4s-5.08 5.92-5.08 12.28z"></path><path fill="#8e3a1a" d="M43 74.53c-1.16-1.64-2.34-8.87 0-10.33s5.56 2.4 6.37 4.21c-6.34 1 4.35 7.19-2.55 8.46 2.28-2.23.37-2-.64-3.79-.77-1.37-2.73-3.62.2-4.07 1.19-2.11-1-3.31-3-3-.42 1.68-1.59 5.73-.73 6.43z"></path><circle cx="49.13" cy="83.05" r="3.07" fill="#55b78a"></circle><circle cx="107.94" cy="65.74" r=".86" fill="#fff"></circle><circle cx="80.32" cy="64.6" r="1.04" fill="#fff"></circle><circle cx="172.95" cy="155.44" r="28.86" fill="#f089b7"></circle><circle cx="228.36" cy="105.57" r="27.19" fill="#f089b7"></circle><circle cx="300.34" cy="70.28" r="30.57" fill="#f089b7"></circle><circle cx="243.4" cy="32.37" r="30.37" fill="#f089b7"></circle><circle cx="159.1" cy="84.97" r="31.5" fill="#f089b7"></circle><path fill="#f089b7" d="M282.35 130.81l7.93-37.35 6.91 2.3-14.84 35.05zM244.3 60.53l7.7-2.31 17.64 71.7zm-8.57 69.82l6.23-3.66 10.62 26.74zM180 101.18l-5.38 6.91 65.79 58.75zm19 62.18l-3.12 8.41 42.23 12.45z"></path><path fill="#fcc126" d="M253.11 13.23h-18.89a1.59 1.59 0 00-1.4.82l-9.57 17.87a1.45 1.45 0 000 1.45l9.55 17a1.58 1.58 0 001.38.79h18.95a1.55 1.55 0 001.37-.79l9.89-17a1.45 1.45 0 000-1.45l-9.89-17.87a1.58 1.58 0 00-1.39-.82z"></path><path fill="#f3921b" d="M223.29 31.94a1.7 1.7 0 00.38 1.78c10.1 16 9.51 16.31 10.28 16.54a1 1 0 00.25 0c19.65-.28 19.14.39 19.63-.38l.52-.86c4.19-6.91 8-12.92 9.9-15.73a1.38 1.38 0 00.11-1.35h.09a1.78 1.78 0 01-.29 1.92l-9.58 16.51a1.68 1.68 0 01-1.28.84h-17.6c-1.45 0-2.27.15-2.9-.73-.09-.13.55 1-9.6-17.09a1.66 1.66 0 01-.19-.48 1.54 1.54 0 01.17-1z"></path><path fill="#124662" d="M236 33.3a8.44 8.44 0 016.61-8.24v3.62l11-6.36-11-6.38v4a13.57 13.57 0 001.84 27h7.2v-5.12h-7.2a8.47 8.47 0 01-8.45-8.47v-.05z"></path><circle cx="228.36" cy="105.57" r="19.47" fill="#0a2432"></circle><circle cx="228.36" cy="105.57" r="15.29" fill="#edbb88"></circle><path fill="#94c11a" d="M228.36 115.4a9.84 9.84 0 119.83-9.83 9.85 9.85 0 01-9.83 9.83zm0-18.75a8.92 8.92 0 108.92 8.92 8.92 8.92 0 00-8.92-8.92z"></path><path fill="#94c11a" d="M228.36 121a15.41 15.41 0 1115.41-15.4 15.4 15.4 0 01-15.41 15.4zm0-29.89a14.5 14.5 0 1014.5 14.5 14.5 14.5 0 00-14.5-14.53z"></path><path fill="none" d="M230.68 96.78l-2.24 8.8-2.24-8.84a9.05 9.05 0 00-4.31 2.45l6.53 6.39-8.84-2.49a9 9 0 00-.34 2.48 9.15 9.15 0 00.35 2.5l8.83-2.49-6.53 6.42a9 9 0 004.3 2.44l2.25-8.82 2.22 8.78a9.12 9.12 0 004.23-2.49l-6.46-6.3 8.7 2.45a9 9 0 000-4.89l-8.7 2.44 6.47-6.3a9.14 9.14 0 00-4.22-2.49zm-9.17 15.57l-3.51 3.38a14.58 14.58 0 006.85 3.92l1.2-4.71a9.53 9.53 0 01-4.56-2.59zm20.81-10.69l-4.67 1.34a9.53 9.53 0 010 5.19l4.67 1.32a14.46 14.46 0 000-7.83zm-7-2.77l3.47-3.39a14.64 14.64 0 00-6.76-4l-1.2 4.71a9.58 9.58 0 014.49 2.65zm-9.25-2.69l-1.2-4.7a14.48 14.48 0 00-6.87 3.91l3.47 3.39a9.71 9.71 0 014.59-2.6zm-7.35 9.37a9.77 9.77 0 01.37-2.63l-4.67-1.32a14.5 14.5 0 000 7.91l4.67-1.31a9.86 9.86 0 01-.37-2.65zm12.11 9.33l1.19 4.7a14.44 14.44 0 006.77-4l-3.48-3.4a9.65 9.65 0 01-4.49 2.7z"></path><path fill="#0a2432" d="M219.12 108.22l-4.67 1.31a14.4 14.4 0 003.63 6.2l3.48-3.38a9.61 9.61 0 01-2.44-4.13zm.5-.15a9.08 9.08 0 002.28 3.93l6.53-6.38zm1.87-9.27L218 95.41a14.59 14.59 0 00-3.63 6.21l4.67 1.32a9.72 9.72 0 012.43-4.14zm.4.38a9.05 9.05 0 00-2.28 3.91l8.83 2.48z"></path><path fill="#0a2432" d="M230.68 96.78a9.12 9.12 0 00-2.32-.3 8.85 8.85 0 00-2.18.26l2.24 8.84zm-2.32-.86a9.77 9.77 0 012.46.32l1.2-4.71a15.24 15.24 0 00-3.63-.47 14.21 14.21 0 00-3.49.44l1.2 4.7a9.58 9.58 0 012.26-.28zm8.76 7.21a9.16 9.16 0 00-2.18-3.86l-6.47 6.3zm.53-.15l4.67-1.32a14.46 14.46 0 00-3.54-6.16l-3.47 3.39a9.65 9.65 0 012.34 4.09zm-2.35 9.26l3.48 3.38a14.52 14.52 0 003.54-6.15l-4.67-1.32a9.67 9.67 0 01-2.35 4.09zm-.39-.37a9.11 9.11 0 002.17-3.85l-8.7-2.45z"></path><path fill="#0a2432" d="M226.2 114.41a9.48 9.48 0 002.18.26 9.12 9.12 0 002.32-.3l-2.23-8.78zm2.16.81a9.32 9.32 0 01-2.29-.28l-1.2 4.71a14.39 14.39 0 007.14-.05l-1.19-4.7a9.77 9.77 0 01-2.46.32z"></path><path fill="#ad2221" d="M219.62 108.07l-.54.15a9.59 9.59 0 002.43 4.13l.39-.39a9.08 9.08 0 01-2.28-3.89zm2.27-8.89l-.4-.39a9.64 9.64 0 00-2.41 4.14l.53.16a9.05 9.05 0 012.28-3.91zm6.47-2.7a9.12 9.12 0 012.32.3l.14-.54a9.77 9.77 0 00-2.46-.32 9.34 9.34 0 00-2.3.28l.14.54a9.19 9.19 0 012.16-.26zm6.55 2.79a9.16 9.16 0 012.18 3.86l.53-.15a9.65 9.65 0 00-2.34-4.09zm0 12.6l.39.39a9.67 9.67 0 002.35-4.09l-.53-.15a9.19 9.19 0 01-2.21 3.85zm-6.55 2.79a8.85 8.85 0 01-2.18-.26l-.14.54a9.67 9.67 0 004.75 0l-.13-.54a9 9 0 01-2.3.26zm-14-5.13l-.85.24a15.52 15.52 0 003.83 6.58l.63-.62a14.56 14.56 0 01-3.56-6.2zM218 95.41l-.63-.61a15.44 15.44 0 00-3.84 6.58l.86.24a14.45 14.45 0 013.61-6.21zm10.34-4.35a15.23 15.23 0 013.62.47l.22-.86a15.4 15.4 0 00-3.88-.49 15 15 0 00-3.71.46l.22.86a14.47 14.47 0 013.55-.44zm14 10.6l.86-.23a15.37 15.37 0 00-3.76-6.53l-.64.62a14.39 14.39 0 013.52 6.14zm0 7.83a14.47 14.47 0 01-3.54 6.15l.63.63a15.5 15.5 0 003.77-6.53zm-14 10.58a14.62 14.62 0 01-3.49-.42l-.22.85a15 15 0 003.71.46 15.85 15.85 0 003.87-.49l-.22-.87a14.06 14.06 0 01-3.63.47z"></path><circle cx="228.36" cy="105.57" r="5.66" fill="#95b75a"></circle><ellipse cx="228.41" cy="102.9" fill="#e63027" rx="2.15" ry="2.05"></ellipse><path fill="#c1282e" d="M228.41 105a2.2 2.2 0 11.06 0zm0-4.09a2 2 0 102.05 2 2 2 0 00-2.05-1.91z"></path><ellipse cx="226.02" cy="107.12" fill="#e63027" rx="2.15" ry="2.05"></ellipse><path fill="#c1282e" d="M226 109.27a2.21 2.21 0 11.06 0zm0-4.1a2 2 0 102 2 2 2 0 00-2-2z"></path><ellipse cx="230.89" cy="107.04" fill="#e63027" rx="2.15" ry="2.05"></ellipse><path fill="#c1282e" d="M230.89 109.19a2.2 2.2 0 11.06 0zm0-4.1a2 2 0 102.05 2 2 2 0 00-2.05-2z"></path><circle cx="173.38" cy="154.76" r="18.46" fill="#46b9eb"></circle><path fill="#fff" d="M180.26 158.79a1.19 1.19 0 00-1-1.29 1.33 1.33 0 001.31-1.34 1.23 1.23 0 00-1.14-1.31h-.06c.42 0 .8-.48.81-1.2 0-.88-.78-1.45-1.82-1.45l-3.87-.13a.25.25 0 01-.25-.26c.1-.72.62-1.52.72-2.11a3 3 0 00-.38-2.27c-.55-.82-1.83-.61-1.91-.09a28.37 28.37 0 01-.61 3.05c-.16.38-1.94 3-2.75 4.18a1.33 1.33 0 01-1.1.57h-2l.08 6.26H170a17.36 17.36 0 002.05 1c1.54.65 5.86 0 5.88 0a2.12 2.12 0 001.73-1.26c.06-.31.09-1.07-.25-1.07a1.27 1.27 0 00.87-1.26z"></path><path fill="#874c99" d="M191.84 169.52h-34.1V136.3h4.45v28.42h29.65z"></path><path fill="#743a8f" d="M157.73 144.79v2.29h4.47v-2.29zm32.89 19.93h-2v4.8h2z"></path><path fill="#fab643" d="M189 173.22h-4.45V145.1h-29.63v-4.8h34v32.92z"></path><path fill="none" d="M166.62 92.13a10.33 10.33 0 10-4.56 2.78 10.33 10.33 0 004.56-2.78z"></path><path fill="#fff" d="M158.4 95.29zm2-.05h-.37zm-.64.06h-.38a1.61 1.61 0 00.39 0zm8.52-15.2q-.14-.27-.3-.54.17.27.31.54zm-1.68 12.05l6 5.8a19.62 19.62 0 004.9-18.34l-8.44 2.46c2.02 6.83-3.84 11.52-2.45 10.08zm2.2-10.92c-.07-.15-.12-.31-.19-.46.08.15.13.29.2.46zm-.24-.57c-.08-.18-.16-.34-.25-.5.08.17.18.32.26.5zm.48 1.27c-.05-.18-.11-.35-.17-.52.07.17.13.37.18.52zm-11.32 13.29h-.35z"></path><path fill="#fff" d="M149.19 87.85a.25.25 0 00.05.18l-9.76 3a21 21 0 0015.17 12.55l2.06-8.58a10.48 10.48 0 01-7.5-7.13A10.36 10.36 0 01168 79.56a10.4 10.4 0 00-6.38-4.67L164 65h-.08v-.11a20.71 20.71 0 00-19.81 5.8l7.47 7.16a10.37 10.37 0 00-2.39 10zm15.3 6l-.39.21zm-3.35 1.29l-.38.07zm5-2.47l-.31.26zm-.52.4a4.08 4.08 0 01-.33.25zm-.55.41l-.36.23zM161.8 95l-.41.1zm.65-.19l-.41.13zm1.45-.61c-.17.09-.35.17-.54.25.19-.11.37-.19.54-.28zm-.59.29l-.61.24z"></path><path fill="#e4171d" d="M168.32 80.16zm.56 1.25l-.07-.18zm-.26-.64s0-.08-.05-.11.04.07.05.11z"></path><path fill="#e4171d" d="M169.11 82.07l8.44-2.46A21 21 0 00164 65l-2.45 9.94a10.33 10.33 0 017.56 7.13zm-5.75 12.35zm1.33-.72l-.2.14zm-.59.35l-.2.12zm-1.42.65l-.23.08zm-.64.21l-.24.06zm4.29-2.5l-.21.21zm-1.06.9l-.22.16zm.54-.43l-.21.18zm-7.09 2.43zm-1.67-.21a1.83 1.83 0 01.32.07zm3 .18zm.67-.08h-.3zm-2.69.06a.88.88 0 01-.32 0zm3.35-.19l-.28.06z"></path><path fill="#e4171d" d="M172.65 98l-6-5.8a10.41 10.41 0 01-9.9 2.9l-2.06 8.56a19.65 19.65 0 0018-5.66zm-33.38-7.13a20.74 20.74 0 014.85-20.16l.07-.07a20.73 20.73 0 00-4.95 20.14v.1z"></path><path fill="#e4171d" d="M139.27 90.85h.11c0 .08.07.15.1.23l9.76-3a1.54 1.54 0 00-.05-.17 10.32 10.32 0 012.47-10.06l-7.47-7.17-.07.07a20.73 20.73 0 00-4.85 20.13z"></path><path fill="gray" d="M164.94 104.86l-.52.14zm1.27-.41l-.42.14zm-5.21 1.16zm1.33-.17l-.59.07zm1.32-.24l-.57.1zm-5.34.51h-.64zm13.13-4.07l-.44.36zm1.08-.85l-.45.38zm-5 3.14z"></path><path fill="#d9dada" d="M177.55 79.61a19.68 19.68 0 01-4.9 18.39l1.42 1.36a21.06 21.06 0 005-20.17z"></path><path fill="gray" d="M170.28 102.43l-.45.29zm-1.25.74l-.37.21zm4.51-3.32a6.25 6.25 0 01-.45.44 6.25 6.25 0 00.45-.44zm-16.6 5.72l-.63-.08zM164 65v-.11.11zm-8.45 40.43l-.63-.13z"></path><path fill="#d9dada" d="M139.48 91.05h-.13a20.71 20.71 0 0014.94 14l.36-1.51a21 21 0 01-15.17-12.55z"></path><path fill="gray" d="M179 78.88a20.74 20.74 0 00-14.87-14 20.74 20.74 0 0114.87 14z"></path><path fill="#be111f" d="M177.55 79.61l1.5-.44a20.75 20.75 0 00-15-14.33V65a21 21 0 0113.5 14.61z"></path><path fill="gray" d="M168.66 103.38c-.39.19-.78.38-1.18.55.4-.17.79-.36 1.18-.55zm1.18-.66c-.26.16-.53.3-.8.45zm2.22-1.55c-.21.17-.42.32-.63.47a6.43 6.43 0 00.63-.47zm2-1.83c-.17.18-.35.34-.53.51.19-.17.37-.33.54-.51zM171 102c-.22.16-.46.3-.69.45.2-.17.44-.31.69-.45zm2.12-1.69c-.18.17-.38.33-.58.5a4.86 4.86 0 00.55-.52zm-5.67 3.69c-.41.18-.82.35-1.24.5.42-.2.79-.37 1.24-.5zm-5.72 1.56l-.72.1zm-5.42 0l-.73-.11zm6.76-.19c-.25 0-.5.11-.73.14.25-.1.48-.16.73-.21zm-5.41.32l-.72-.05zm2.75 0a4.35 4.35 0 00-.72 0 4.72 4.72 0 00.72-.05zm5.37-1c-.28.09-.56.19-.84.27.28-.18.55-.28.84-.37zm-1.36.4l-.78.19a5.89 5.89 0 00.78-.28zm-10.13.12c.22.06.45.09.67.14-.22-.15-.45-.18-.67-.24z"></path><path fill="#be111f" d="M154.65 103.6l-.36 1.51a20.78 20.78 0 0019.78-5.77L172.65 98c-7.65 8.09-17.93 5.59-18 5.6z"></path><path fill="gray" d="M139.38 91.09a1.09 1.09 0 00-.07-.24.86.86 0 00.07.25z"></path><circle cx="300.34" cy="70.28" r="23.5" fill="#e5261c"></circle><circle cx="300.34" cy="70.28" r="18.45" fill="#f6f6f6"></circle><path fill="#0a2432" d="M293.92 76.47l-1-3.32H288l-1 3.32-3.5 1.06 5.19-15h3.52l4.81 14zm-1.67-5.8c-.91-3-1.45-4.7-1.54-5.08s-.19-.72-.24-.93c-.21.81-.79 2.82-1.76 6zm9.17 6a3.29 3.29 0 01-2.9-1.53 7.26 7.26 0 01-1-4.22 7.4 7.4 0 011.07-4.25 3.38 3.38 0 012.9-1.55 3.32 3.32 0 013 1.63l-.1-5.08h2.84v14.8H305l-.52-1.47h-.11a3.2 3.2 0 01-2.95 1.66zm1-2.42a1.85 1.85 0 001.59-.67 4.14 4.14 0 00.56-2.3v-.33a4.84 4.84 0 00-.52-2.56 1.87 1.87 0 00-1.67-.78 1.63 1.63 0 00-1.45.86 4.73 4.73 0 00-.53 2.5 4.55 4.55 0 00.53 2.46 1.7 1.7 0 001.48.81zm14.58-.94a3 3 0 01-1.11 2.49 5.42 5.42 0 01-3.32.86 11.34 11.34 0 01-1.93-.16 7.22 7.22 0 01-1.5-.46v-2.4a9.46 9.46 0 001.78.64 6.85 6.85 0 001.74.26c1 0 1.55-.31 1.55-.91a.81.81 0 00-.21-.56 3 3 0 00-.72-.49c-.34-.18-.78-.39-1.34-.63a8.59 8.59 0 01-1.76-1 2.72 2.72 0 01-.77-1 3.46 3.46 0 01-.25-1.39 2.57 2.57 0 011.07-2.18 5.2 5.2 0 013.05-.77 8.43 8.43 0 013.62.84l-.85 2.1a13.61 13.61 0 00-1.45-.57 4.7 4.7 0 00-1.39-.22c-.83 0-1.25.23-1.25.73a.8.8 0 00.4.67 11.06 11.06 0 001.77.85A7.83 7.83 0 01316 71a2.8 2.8 0 01.83 1 3.09 3.09 0 01.25 1.31z"></path><path fill="#ad2221" d="M300.35 88.87a18.6 18.6 0 1118.59-18.59 18.61 18.61 0 01-18.59 18.59zm0-36.08a17.49 17.49 0 1017.49 17.49 17.49 17.49 0 00-17.49-17.49z"></path><path fill="#e5261c" d="M281 77.92l37.26-16.59 1.37 3.1L282.41 81z"></path></svg> 