<svg xmlns="http://www.w3.org/2000/svg" xmlns:xlink="http://www.w3.org/1999/xlink"><symbol id="svg-body" viewBox="0 0 512 512"><title>Editor link</title><g fill="none" fill-rule="evenodd"><path d="M379.62 163.515c-9.267-11.66-20.519-21.875-31.655-31.885-17.574-15.782-45.926-17.562-60.8-3.226a3350.24 3350.24 0 0 0-81.792 81.741c-15.5 16.051-13.926 45.171-1.036 59.981 9.216 10.573 19.712 20.02 28.761 29.094L260.9 271.7c-7.015-7.168-14.285-14.822-21.786-22.233-5.401-5.312-6.899-10.611-1.037-16.474 22.695-22.72 45.415-45.44 68.122-68.16 5.824-5.824 11.162-4.544 16.486.896 7.476 7.667 15.322 14.976 22.63 22.797 7.425 7.949 7.207 10.944-.895 19.507-6.874 7.245-24.896 25.242-24.896 25.242 8.32 10.893 12.582 27.097 10.547 46.976 17.702-18.445 31.923-34.522 47.949-49.639 21.337-20.121 17.651-46.912 1.6-67.097zm-70.733 79.13c12.058 15.219 13.107 42.598-1.856 58.24-26.598 27.788-53.952 54.899-81.587 81.663-15.22 14.746-42.65 13.594-60.71-2.278-11.751-10.317-23.693-20.966-33.076-33.344-15.872-20.98-18.073-46.208 1.741-65.434 11.571-11.225 47.45-45.85 47.45-45.85-2.292 22.849 6.937 36.212 11.443 43.854-8.167 7.923-17.024 16.09-25.395 24.742-7.194 7.437-7.348 10.944-.896 17.83 7.795 8.308 16.128 16.103 24.115 24.256 5.721 5.837 10.982 5.159 16.486-.37 20.608-20.711 41.434-41.204 61.875-62.068 7.348-7.5 7.117-18.496.026-26.291-5.658-6.208-11.738-12.045-17.19-17.587l27.878-27.367c9.344 8.73 20.608 18.535 29.696 30.003z" fill="#757575"/></g></symbol><use xlink:href="#svg-body"/></svg>